<svg width="32" height="32" viewBox="0 0 32 32" fill="none" xmlns="http://www.w3.org/2000/svg">
<path d="M11 28H7C6.20435 28 5.44129 27.6839 4.87868 27.1213C4.31607 26.5587 4 25.7956 4 25V12M4 12V10C4 9.20435 4.31607 8.44129 4.87868 7.87868C5.44129 7.31607 6.20435 7 7 7H10M4 12H16M22 4V7M22 7H25C25.7956 7 26.5587 7.31607 27.1213 7.87868C27.6839 8.44129 28 9.20435 28 10V10.5M22 7H10M10 7V4" stroke="black" stroke-width="4" stroke-linecap="round" stroke-linejoin="round"/>
<path d="M20 28V17.4286C20 16.324 20.8954 15.4286 22 15.4286H26C27.1046 15.4286 28 16.324 28 17.4286V28" stroke="black" stroke-width="4" stroke-linecap="round"/>
<path d="M20 28L22.6391 25.5494C23.4065 24.8369 24.5935 24.8368 25.3609 25.5494L28 28" stroke="black" stroke-width="4" stroke-linecap="round"/>
</svg>
