<svg width="32" height="32" viewBox="0 0 32 32" fill="none" xmlns="http://www.w3.org/2000/svg">
<path d="M24 9C24 8.20435 23.6839 7.44129 23.1213 6.87868C22.5587 6.31607 21.7957 6 21 6H7C6.20435 6 5.44129 6.31607 4.87868 6.87868C4.31607 7.44129 4 8.20435 4 9V23C4 23.7956 4.31607 24.5587 4.87868 25.1213C5.44129 25.6839 6.20435 26 7 26H10M22.0458 23.7083C22.0458 22.7627 22.8623 22.0341 23.7251 21.6219C24.0042 21.4894 24.2625 21.3211 24.5 21.1171C25.8543 19.9465 25.8543 18.0485 24.5 16.8779C23.1445 15.7074 20.9482 15.7074 19.5927 16.8779C18.6302 17.8078 18.5157 18.7273 18.5157 19.2727M22.0458 27.9909H22.055V28H22.0458V27.9909Z" stroke="black" stroke-width="4" stroke-linecap="round" stroke-linejoin="round"/>
</svg>
